<svg width="249" height="255" viewBox="0 0 249 255" fill="none" xmlns="http://www.w3.org/2000/svg">
<path d="M101.984 31.7588C103.891 31.7588 105.655 31.4717 107.234 30.918L109.49 33.9326H115.253L111.274 28.6211C114.432 25.9551 116.217 21.6689 116.217 16.2139V16.1729C116.217 6.61621 110.7 0.648438 101.984 0.648438C93.2684 0.648438 87.7312 6.5957 87.7312 16.1729V16.2139C87.7312 25.7705 93.1863 31.7588 101.984 31.7588ZM101.984 26.5088C97.1033 26.5088 94.0477 22.4688 94.0477 16.2139V16.1729C94.0477 9.89746 97.1648 5.89844 101.984 5.89844C106.783 5.89844 109.9 9.89746 109.9 16.1729V16.2139C109.9 19.4131 109.08 22.0176 107.644 23.8223L105.737 21.2588H99.9744L103.768 26.3037C103.194 26.4473 102.599 26.5088 101.984 26.5088Z" fill="white"/>
<path d="M125.986 1.40723L119.649 31H122.5L124.858 19.8438H132.712C139.337 19.8438 144.258 15.7217 144.258 9.13867C144.258 4.50391 140.69 1.40723 135.768 1.40723H125.986ZM128.303 3.90918H134.866C138.906 3.90918 141.346 6.04199 141.346 9.38477C141.346 14.3477 137.798 17.3418 132.548 17.3418H125.391L128.303 3.90918Z" fill="white"/>
<path d="M151.362 31.3691C154.356 31.3691 157.165 29.8926 158.724 27.6162H158.97L158.252 31H160.877L163.954 16.46C164.077 15.8447 164.138 15.209 164.138 14.6348C164.138 10.9229 161.103 8.54395 156.407 8.54395C151.977 8.54395 148.47 10.8408 147.588 14.3887H150.418C151.095 12.2764 153.31 10.9639 156.202 10.9639C159.462 10.9639 161.411 12.4609 161.411 14.9834C161.411 15.3936 161.37 15.7627 161.267 16.2959L160.898 17.957L154.007 18.2852C147.957 18.5723 144.574 21.1562 144.574 25.4014C144.574 28.8057 147.445 31.3691 151.362 31.3691ZM152.141 29.0107C149.311 29.0107 147.322 27.4111 147.322 25.1348C147.322 22.4277 149.701 20.7256 153.864 20.5L160.447 20.1514L159.79 23.207C159.052 26.5293 155.832 29.0107 152.141 29.0107Z" fill="white"/>
<path d="M167.201 38.834C169.99 38.834 171.795 37.7471 174.215 33.5635L188.509 8.91309H185.535L174.974 27.6367H174.707L171.795 8.91309H169.109L172.759 31.0205L171.836 32.6816C170.237 35.5527 168.986 36.5371 167.345 36.5371C166.668 36.5371 165.95 36.4141 165.561 36.3115L165.089 38.5674C165.479 38.6699 166.422 38.834 167.201 38.834Z" fill="white"/>
<path d="M1.74149 184.157L123.871 254.542C124.395 254.842 124.988 255 125.592 255C126.196 255 126.789 254.842 127.313 254.542L246.775 186.718C247.306 186.415 247.747 185.977 248.054 185.449C248.361 184.92 248.522 184.32 248.522 183.709C248.522 183.098 248.361 182.497 248.054 181.969C247.747 181.44 247.306 181.002 246.775 180.699L122.586 109.638C122.06 109.334 121.462 109.174 120.854 109.174C120.245 109.174 119.648 109.334 119.121 109.638L1.72629 178.154C1.19994 178.459 0.763279 178.898 0.460241 179.425C0.157203 179.953 -0.00152947 180.551 1.1108e-05 181.16C0.00155168 181.768 0.16331 182.366 0.469016 182.892C0.774723 183.418 1.2136 183.854 1.74149 184.157Z" fill="#709FF9"/>
<path d="M172.97 165.417L144.093 181.718C144.093 181.718 171.853 198.778 187.743 208.445L212.95 193.132" fill="url(#paint0_linear_22_3)" style="mix-blend-mode:multiply"/>
<path d="M45.5138 181.786L21.0059 195.017C21.0059 195.017 34.9887 202.813 50.8789 212.495L76.086 197.152" fill="url(#paint1_linear_22_3)" style="mix-blend-mode:multiply"/>
<path d="M106.795 150.796L85.0532 163.715C85.0532 163.715 93.9673 173.799 110.564 180.783L140.422 162.848" fill="url(#paint2_linear_22_3)" style="mix-blend-mode:multiply"/>
<path d="M123.08 167.575C133.313 167.575 141.608 162.717 141.608 156.723C141.608 150.73 133.313 145.872 123.08 145.872C112.848 145.872 104.553 150.73 104.553 156.723C104.553 162.717 112.848 167.575 123.08 167.575Z" fill="#FF912E"/>
<path d="M104.553 156.731V153.592L106.567 156.1L104.553 156.731Z" fill="#E0944F"/>
<path d="M141.6 153.592V156.731H139.252L140.969 154.208L141.6 153.592Z" fill="#E0944F"/>
<path d="M123.111 164.573C133.343 164.573 141.638 159.715 141.638 153.722C141.638 147.728 133.343 142.87 123.111 142.87C112.878 142.87 104.584 147.728 104.584 153.722C104.584 159.715 112.878 164.573 123.111 164.573Z" fill="#FFB92C"/>
<path d="M132.473 152.141C132.601 152.394 132.651 152.68 132.618 152.962L132.542 153.25H129.16C129.189 153.156 129.21 153.06 129.221 152.962C129.207 152.742 129.136 152.53 129.015 152.346C128.827 152.014 128.54 151.749 128.195 151.586C127.703 151.33 127.161 151.187 126.606 151.168C126.089 151.131 125.569 151.211 125.087 151.404C124.615 151.606 124.433 151.86 124.539 152.164C124.699 152.565 124.946 152.925 125.261 153.22C125.627 153.592 125.97 153.985 126.287 154.398C126.439 154.576 126.536 154.794 126.568 155.025C126.601 155.256 126.567 155.492 126.47 155.705C126.098 156.318 125.514 156.773 124.828 156.982C123.692 157.46 122.474 157.718 121.241 157.742C119.912 157.786 118.585 157.598 117.32 157.187L115.375 158.023L113.095 156.913L114.987 156.1C114.648 155.874 114.344 155.6 114.083 155.287C113.888 155.064 113.736 154.806 113.634 154.527C113.571 154.328 113.532 154.121 113.52 153.912C113.497 153.771 113.497 153.627 113.52 153.486L113.589 153.326H116.971C116.935 153.438 116.907 153.553 116.887 153.668C116.904 153.943 116.998 154.206 117.16 154.428C117.43 154.851 117.819 155.184 118.278 155.386C118.89 155.694 119.561 155.868 120.246 155.895C120.863 155.937 121.481 155.838 122.054 155.606C122.521 155.404 122.698 155.15 122.586 154.846C122.416 154.441 122.156 154.08 121.827 153.79C121.454 153.423 121.109 153.029 120.793 152.612C120.646 152.431 120.554 152.212 120.529 151.98C120.503 151.748 120.545 151.514 120.649 151.305C121.051 150.679 121.662 150.216 122.374 149.998C123.465 149.557 124.631 149.328 125.809 149.322C127.054 149.28 128.297 149.473 129.471 149.892L131.409 149.056L133.53 150.211L131.584 151.047C131.97 151.328 132.276 151.705 132.473 152.141Z" fill="#EA8B24"/>
<path d="M123.08 161.602C133.313 161.602 141.608 156.744 141.608 150.75C141.608 144.757 133.313 139.898 123.08 139.898C112.848 139.898 104.553 144.757 104.553 150.75C104.553 156.744 112.848 161.602 123.08 161.602Z" fill="#FF912E"/>
<path d="M104.553 150.75V147.612L106.567 150.12L104.553 150.75Z" fill="#E0944F"/>
<path d="M141.6 147.612V150.75H139.252L140.969 148.235L141.6 147.612Z" fill="#E0944F"/>
<path d="M123.08 158.464C133.313 158.464 141.608 153.605 141.608 147.612C141.608 141.618 133.313 136.76 123.08 136.76C112.848 136.76 104.553 141.618 104.553 147.612C104.553 153.605 112.848 158.464 123.08 158.464Z" fill="#FFB92C"/>
<path d="M132.473 146.16C132.601 146.414 132.651 146.699 132.618 146.981L132.542 147.27H129.16C129.189 147.176 129.21 147.079 129.221 146.981C129.207 146.761 129.136 146.549 129.015 146.365C128.827 146.033 128.54 145.768 128.195 145.606C127.703 145.349 127.161 145.206 126.606 145.188C126.089 145.15 125.569 145.23 125.087 145.423C124.615 145.626 124.433 145.879 124.539 146.183C124.699 146.584 124.946 146.945 125.261 147.239C125.627 147.611 125.97 148.004 126.287 148.417C126.439 148.595 126.536 148.813 126.568 149.044C126.601 149.276 126.567 149.512 126.47 149.724C126.098 150.338 125.514 150.792 124.828 151.001C123.692 151.479 122.474 151.737 121.241 151.761C119.912 151.805 118.585 151.617 117.32 151.206L115.375 152.042L113.095 150.933L114.987 150.12C114.648 149.893 114.344 149.619 114.083 149.306C113.888 149.083 113.736 148.825 113.634 148.546C113.571 148.347 113.532 148.14 113.52 147.931C113.497 147.79 113.497 147.646 113.52 147.505L113.589 147.346H116.971C116.935 147.458 116.907 147.572 116.887 147.688C116.904 147.962 116.998 148.226 117.16 148.448C117.43 148.87 117.819 149.203 118.278 149.405C118.89 149.713 119.561 149.887 120.246 149.914C120.863 149.956 121.481 149.857 122.054 149.626C122.521 149.423 122.698 149.17 122.586 148.866C122.416 148.461 122.156 148.1 121.827 147.809C121.454 147.442 121.109 147.049 120.793 146.631C120.646 146.45 120.554 146.231 120.529 145.999C120.503 145.767 120.545 145.533 120.649 145.324C121.051 144.699 121.662 144.236 122.374 144.017C123.465 143.576 124.631 143.347 125.809 143.341C127.054 143.299 128.297 143.493 129.471 143.911L131.409 143.075L133.53 144.23L131.584 145.066C131.97 145.348 132.276 145.725 132.473 146.16Z" fill="#EA8B24"/>
<path d="M123.08 155.599C133.313 155.599 141.608 150.74 141.608 144.747C141.608 138.753 133.313 133.895 123.08 133.895C112.848 133.895 104.553 138.753 104.553 144.747C104.553 150.74 112.848 155.599 123.08 155.599Z" fill="#FF912E"/>
<path d="M104.553 144.747V141.608L106.567 144.116L104.553 144.747Z" fill="#E0944F"/>
<path d="M141.6 141.608V144.747H139.252L140.969 142.231L141.6 141.608Z" fill="#E0944F"/>
<path d="M123.08 152.468C133.313 152.468 141.608 147.609 141.608 141.616C141.608 135.623 133.313 130.764 123.08 130.764C112.848 130.764 104.553 135.623 104.553 141.616C104.553 147.609 112.848 152.468 123.08 152.468Z" fill="#FFB92C"/>
<path d="M132.473 140.157C132.601 140.41 132.651 140.696 132.618 140.978L132.542 141.266H129.16C129.189 141.172 129.21 141.076 129.221 140.978C129.207 140.758 129.136 140.546 129.015 140.362C128.827 140.03 128.54 139.764 128.195 139.602C127.703 139.346 127.161 139.203 126.606 139.184C126.089 139.146 125.569 139.227 125.087 139.42C124.615 139.622 124.433 139.876 124.539 140.18C124.699 140.581 124.946 140.941 125.261 141.236C125.627 141.607 125.97 142.001 126.287 142.414C126.439 142.592 126.536 142.809 126.568 143.041C126.601 143.272 126.567 143.508 126.47 143.721C126.098 144.334 125.514 144.789 124.828 144.998C123.692 145.476 122.474 145.734 121.241 145.758C119.912 145.802 118.585 145.614 117.32 145.203L115.375 146.039L113.095 144.929L114.987 144.116C114.648 143.89 114.344 143.616 114.083 143.303C113.888 143.079 113.736 142.822 113.634 142.543C113.571 142.343 113.532 142.137 113.52 141.927C113.497 141.787 113.497 141.643 113.52 141.502L113.589 141.342H116.971C116.935 141.454 116.907 141.569 116.887 141.684C116.904 141.959 116.998 142.222 117.16 142.444C117.43 142.867 117.819 143.2 118.278 143.402C118.89 143.71 119.561 143.884 120.246 143.911C120.863 143.953 121.481 143.854 122.054 143.622C122.521 143.419 122.698 143.166 122.586 142.862C122.416 142.457 122.156 142.096 121.827 141.806C121.454 141.439 121.109 141.045 120.793 140.628C120.646 140.447 120.554 140.227 120.529 139.996C120.503 139.764 120.545 139.53 120.649 139.321C121.051 138.695 121.662 138.232 122.374 138.014C123.465 137.573 124.631 137.343 125.809 137.337C127.054 137.296 128.297 137.489 129.471 137.907L131.409 137.071L133.53 138.227L131.584 139.062C131.97 139.344 132.276 139.721 132.473 140.157Z" fill="#EA8B24"/>
<path d="M123.08 151.161C133.313 151.161 141.608 146.302 141.608 140.309C141.608 134.315 133.313 129.457 123.08 129.457C112.848 129.457 104.553 134.315 104.553 140.309C104.553 146.302 112.848 151.161 123.08 151.161Z" fill="#FF912E"/>
<path d="M104.553 140.309V137.178L106.567 139.678L104.553 140.309Z" fill="#E0944F"/>
<path d="M141.6 137.178V140.309H139.252L140.969 137.793L141.6 137.178Z" fill="#E0944F"/>
<path d="M123.08 148.03C133.313 148.03 141.608 143.171 141.608 137.178C141.608 131.184 133.313 126.326 123.08 126.326C112.848 126.326 104.553 131.185 104.553 137.178C104.553 143.171 112.848 148.03 123.08 148.03Z" fill="#FFB92C"/>
<path d="M132.473 135.726C132.601 135.98 132.651 136.265 132.618 136.547L132.542 136.836H129.16C129.189 136.742 129.21 136.645 129.221 136.547C129.207 136.328 129.136 136.115 129.015 135.932C128.827 135.599 128.54 135.334 128.195 135.172C127.703 134.915 127.161 134.772 126.606 134.754C126.089 134.716 125.569 134.797 125.087 134.989C124.615 135.192 124.433 135.445 124.539 135.749C124.699 136.15 124.946 136.511 125.261 136.805C125.627 137.177 125.97 137.57 126.287 137.983C126.439 138.161 126.536 138.379 126.568 138.61C126.601 138.842 126.567 139.078 126.47 139.29C126.098 139.904 125.514 140.358 124.828 140.567C123.692 141.046 122.474 141.303 121.241 141.327C119.912 141.371 118.585 141.183 117.32 140.772L115.375 141.608L113.095 140.499L114.987 139.686C114.648 139.459 114.344 139.185 114.083 138.872C113.888 138.649 113.736 138.391 113.634 138.113C113.571 137.913 113.532 137.706 113.52 137.497C113.497 137.356 113.497 137.212 113.52 137.071L113.589 136.912H116.971C116.935 137.024 116.907 137.138 116.887 137.254C116.904 137.528 116.998 137.792 117.16 138.014C117.43 138.436 117.819 138.769 118.278 138.971C118.89 139.28 119.561 139.453 120.246 139.48C120.863 139.522 121.481 139.423 122.054 139.192C122.521 138.989 122.698 138.736 122.586 138.432C122.416 138.027 122.156 137.666 121.827 137.375C121.454 137.008 121.109 136.615 120.793 136.198C120.646 136.016 120.554 135.797 120.529 135.565C120.503 135.333 120.545 135.099 120.649 134.89C121.051 134.265 121.662 133.802 122.374 133.583C123.465 133.143 124.631 132.913 125.809 132.907C127.054 132.865 128.297 133.059 129.471 133.477L131.409 132.641L133.53 133.796L131.584 134.632C131.97 134.914 132.276 135.291 132.473 135.726Z" fill="#EA8B24"/>
<path d="M126.082 145.157C136.314 145.157 144.609 140.299 144.609 134.305C144.609 128.312 136.314 123.453 126.082 123.453C115.85 123.453 107.555 128.312 107.555 134.305C107.555 140.299 115.85 145.157 126.082 145.157Z" fill="#FF912E"/>
<path d="M107.563 134.305V131.174L109.576 133.682L107.563 134.305Z" fill="#E0944F"/>
<path d="M144.609 131.174L144.609 134.305L142.254 134.305L143.979 131.79L144.609 131.174Z" fill="#E0944F"/>
<path d="M126.082 142.026C136.314 142.026 144.609 137.168 144.609 131.174C144.609 125.181 136.314 120.322 126.082 120.322C115.85 120.322 107.555 125.181 107.555 131.174C107.555 137.168 115.85 142.026 126.082 142.026Z" fill="#FFB92C"/>
<path d="M135.483 129.723C135.61 129.976 135.661 130.262 135.627 130.544L135.551 130.832H132.169C132.199 130.738 132.219 130.642 132.23 130.544C132.216 130.324 132.146 130.112 132.025 129.928C131.836 129.596 131.55 129.331 131.204 129.168C130.713 128.912 130.17 128.769 129.616 128.75C129.098 128.713 128.578 128.793 128.096 128.986C127.625 129.188 127.442 129.442 127.549 129.746C127.709 130.147 127.955 130.507 128.271 130.802C128.636 131.174 128.979 131.567 129.297 131.98C129.448 132.158 129.546 132.375 129.578 132.607C129.61 132.838 129.576 133.074 129.479 133.287C129.108 133.9 128.523 134.355 127.838 134.564C126.701 135.042 125.484 135.3 124.251 135.324C122.941 135.384 121.63 135.22 120.375 134.837L118.43 135.673L116.15 134.564L118.042 133.751C117.703 133.524 117.399 133.25 117.138 132.937C116.943 132.714 116.791 132.456 116.689 132.177C116.626 131.978 116.587 131.771 116.575 131.562C116.552 131.421 116.552 131.277 116.575 131.136L116.644 130.977H120.025C119.99 131.089 119.962 131.203 119.942 131.319C119.958 131.593 120.053 131.857 120.215 132.079C120.485 132.501 120.874 132.834 121.333 133.036C121.945 133.344 122.616 133.518 123.301 133.545C123.918 133.587 124.536 133.488 125.109 133.257C125.576 133.054 125.753 132.801 125.641 132.497C125.471 132.092 125.211 131.731 124.881 131.44C124.509 131.073 124.164 130.68 123.848 130.262C123.701 130.081 123.609 129.862 123.584 129.63C123.558 129.398 123.6 129.164 123.704 128.955C124.106 128.33 124.717 127.867 125.429 127.648C126.52 127.207 127.686 126.978 128.864 126.972C130.109 126.93 131.352 127.124 132.526 127.542L134.464 126.706L136.584 127.861L134.639 128.697C134.999 128.965 135.289 129.318 135.483 129.723Z" fill="#EA8B24"/>
<path d="M132.648 138.743C142.88 138.743 151.175 133.885 151.175 127.891C151.175 121.898 142.88 117.04 132.648 117.04C122.416 117.04 114.121 121.898 114.121 127.891C114.121 133.885 122.416 138.743 132.648 138.743Z" fill="#FF912E"/>
<path d="M114.121 127.891V124.753L116.142 127.261L114.121 127.891Z" fill="#E0944F"/>
<path d="M151.168 124.753V127.891H148.819L150.544 125.376L151.168 124.753Z" fill="#E0944F"/>
<path d="M132.648 135.605C142.88 135.605 151.175 130.746 151.175 124.753C151.175 118.76 142.88 113.901 132.648 113.901C122.416 113.901 114.121 118.76 114.121 124.753C114.121 130.746 122.416 135.605 132.648 135.605Z" fill="#FFB92C"/>
<path d="M142.041 123.309C142.169 123.562 142.219 123.848 142.185 124.13L142.109 124.419H138.727C138.757 124.324 138.777 124.228 138.788 124.13C138.775 123.91 138.704 123.698 138.583 123.514C138.395 123.182 138.108 122.917 137.762 122.754C137.271 122.498 136.728 122.355 136.174 122.336C135.656 122.299 135.136 122.379 134.654 122.572C134.183 122.775 134.001 123.028 134.107 123.332C134.267 123.733 134.514 124.093 134.829 124.388C135.194 124.76 135.537 125.153 135.855 125.566C136.006 125.744 136.104 125.962 136.136 126.193C136.168 126.425 136.134 126.66 136.037 126.873C135.666 127.486 135.081 127.941 134.396 128.15C133.259 128.628 132.042 128.886 130.809 128.91C129.48 128.954 128.153 128.766 126.888 128.355L124.942 129.191L122.662 128.081L124.555 127.268C124.216 127.042 123.911 126.768 123.65 126.455C123.455 126.232 123.303 125.974 123.202 125.695C123.138 125.496 123.1 125.289 123.088 125.08C123.065 124.939 123.065 124.795 123.088 124.654L123.156 124.495H126.538C126.503 124.607 126.475 124.721 126.454 124.837C126.471 125.111 126.566 125.375 126.728 125.596C126.998 126.019 127.386 126.352 127.845 126.554C128.457 126.862 129.129 127.036 129.813 127.063C130.43 127.105 131.049 127.006 131.622 126.774C132.088 126.572 132.265 126.318 132.154 126.014C131.983 125.61 131.724 125.249 131.394 124.958C131.022 124.591 130.676 124.197 130.361 123.78C130.214 123.599 130.122 123.38 130.096 123.148C130.071 122.916 130.112 122.682 130.216 122.473C130.619 121.848 131.23 121.385 131.941 121.166C133.033 120.725 134.199 120.496 135.376 120.49C136.622 120.448 137.865 120.641 139.039 121.06L140.977 120.224L143.097 121.379L141.152 122.215C141.538 122.497 141.844 122.874 142.041 123.309Z" fill="#EA8B24"/>
<path d="M123.658 129.609C133.89 129.609 142.185 124.75 142.185 118.757C142.185 112.764 133.89 107.905 123.658 107.905C113.426 107.905 105.131 112.764 105.131 118.757C105.131 124.75 113.426 129.609 123.658 129.609Z" fill="#FF912E"/>
<path d="M105.131 118.757V115.626L107.152 118.134L105.131 118.757Z" fill="#E0944F"/>
<path d="M142.178 115.626V118.757H139.829L141.554 116.242L142.178 115.626Z" fill="#E0944F"/>
<path d="M123.658 126.478C133.89 126.478 142.185 121.619 142.185 115.626C142.185 109.633 133.89 104.774 123.658 104.774C113.426 104.774 105.131 109.633 105.131 115.626C105.131 121.619 113.426 126.478 123.658 126.478Z" fill="#FFD64C"/>
<path d="M133.051 114.175C133.178 114.428 133.229 114.713 133.195 114.995L133.119 115.284H129.737C129.767 115.19 129.787 115.093 129.798 114.995C129.785 114.776 129.714 114.564 129.593 114.38C129.405 114.048 129.118 113.782 128.772 113.62C128.281 113.363 127.738 113.22 127.184 113.202C126.666 113.164 126.146 113.245 125.664 113.437C125.193 113.64 125.011 113.893 125.117 114.197C125.277 114.598 125.523 114.959 125.839 115.254C126.204 115.625 126.547 116.019 126.865 116.432C127.016 116.61 127.114 116.827 127.146 117.059C127.178 117.29 127.144 117.526 127.047 117.739C126.676 118.352 126.091 118.806 125.406 119.015C124.269 119.494 123.052 119.752 121.819 119.775C120.489 119.819 119.163 119.632 117.898 119.221L115.952 120.056L113.672 118.947L115.565 118.134C115.239 117.917 114.945 117.656 114.691 117.359C114.496 117.135 114.344 116.878 114.242 116.599C114.179 116.399 114.14 116.192 114.128 115.983C114.105 115.842 114.105 115.699 114.128 115.558L114.197 115.398H117.578C117.543 115.51 117.515 115.624 117.495 115.74C117.511 116.014 117.606 116.278 117.768 116.5C118.038 116.922 118.427 117.256 118.886 117.457C119.498 117.766 120.169 117.939 120.854 117.967C121.471 118.008 122.089 117.91 122.662 117.678C123.128 117.475 123.306 117.222 123.194 116.918C123.024 116.513 122.764 116.152 122.434 115.862C122.062 115.494 121.717 115.101 121.401 114.684C121.254 114.503 121.162 114.283 121.137 114.051C121.111 113.82 121.153 113.585 121.257 113.377C121.663 112.732 122.29 112.257 123.02 112.039C124.111 111.598 125.277 111.369 126.454 111.363C127.7 111.321 128.943 111.514 130.117 111.933L132.055 111.097L134.175 112.252L132.23 113.088C132.59 113.376 132.872 113.75 133.051 114.175Z" fill="#EA8B24"/>
<path d="M182.371 113.209C182.31 112.915 182.186 112.638 182.006 112.398C181.826 112.157 181.595 111.959 181.329 111.819C181.089 111.686 180.807 111.65 180.541 111.72C180.275 111.789 180.046 111.958 179.901 112.191C179.782 112.426 179.745 112.693 179.794 112.951C179.708 113.329 179.719 113.722 179.826 114.095C179.934 114.467 180.135 114.806 180.41 115.079C180.608 115.273 180.874 115.382 181.151 115.382C181.428 115.382 181.694 115.273 181.892 115.079C182.113 114.827 182.271 114.526 182.354 114.201C182.438 113.877 182.443 113.537 182.371 113.209Z" fill="#5A2500"/>
<path d="M214.972 79.0276L175.182 55.5304C174.599 55.2322 173.961 55.0555 173.308 55.0111C172.655 54.9667 172 55.0555 171.382 55.272H171.321C171.029 55.3699 170.747 55.4945 170.478 55.6443L166.731 57.3238L168.745 58.2129L169.984 160.044C169.983 161.838 170.453 163.6 171.347 165.154C172.24 166.709 173.526 168.003 175.075 168.905L212.168 190.518L211.59 193.998L216.621 191.338C217.108 191.071 217.515 190.678 217.797 190.199C218.079 189.72 218.227 189.174 218.224 188.618V84.6815C218.219 83.5378 217.917 82.4151 217.347 81.4238C216.777 80.4325 215.958 79.6066 214.972 79.0276Z" fill="#1EC3F6"/>
<path d="M214.972 79.0276L175.182 55.5304C174.599 55.2322 173.961 55.0555 173.308 55.0111C172.655 54.9667 172 55.0555 171.382 55.272H171.321C171.029 55.3699 170.747 55.4945 170.478 55.6443L166.731 57.3238L168.745 58.2129L169.984 160.044C169.983 161.838 170.453 163.6 171.347 165.154C172.24 166.709 173.526 168.003 175.075 168.905L212.168 190.518L211.59 193.998L216.621 191.338C217.108 191.071 217.515 190.678 217.797 190.199C218.079 189.72 218.227 189.174 218.224 188.618V84.6815C218.219 83.5378 217.917 82.4151 217.347 81.4238C216.777 80.4325 215.958 79.6066 214.972 79.0276Z" fill="#3F3D56"/>
<path d="M208.702 193.816L170.242 171.405C168.692 170.503 167.407 169.209 166.513 167.655C165.62 166.1 165.15 164.338 165.15 162.544V59.7784C165.149 59.297 165.275 58.8238 165.516 58.407C165.756 57.9902 166.104 57.6448 166.522 57.4061C166.94 57.1673 167.414 57.0437 167.895 57.048C168.376 57.0522 168.848 57.1841 169.262 57.4302L210.146 81.5809C211.133 82.1639 211.951 82.9941 212.518 83.9897C213.086 84.9852 213.384 86.1116 213.384 87.2577V191.126C213.383 191.673 213.238 192.211 212.964 192.684C212.689 193.158 212.295 193.551 211.82 193.823C211.346 194.096 210.808 194.239 210.26 194.238C209.713 194.236 209.176 194.091 208.702 193.816Z" fill="#F4F4F4"/>
<path d="M210.952 93.5271L167.134 68.4037V158.312L210.952 183.64V93.5271Z" fill="#054F70"/>
<path d="M185.6 177.349C186.686 177.09 187.283 175.692 186.933 174.226C186.583 172.76 185.419 171.783 184.333 172.042C183.247 172.301 182.651 173.699 183.001 175.165C183.35 176.63 184.514 177.608 185.6 177.349Z" fill="#BABABC"/>
<path d="M183.32 72.7277C183.32 72.9005 183.366 73.0703 183.453 73.2198C183.54 73.3692 183.664 73.4931 183.814 73.5788L192.28 78.4424C192.429 78.5276 192.598 78.5722 192.77 78.5716C192.941 78.571 193.11 78.5253 193.259 78.4392C193.407 78.353 193.53 78.2293 193.616 78.0805C193.702 77.9317 193.747 77.763 193.747 77.5913V77.3861C193.747 77.2105 193.699 77.0382 193.61 76.8871C193.52 76.736 193.392 76.6118 193.238 76.5274L184.772 71.869C184.623 71.7872 184.455 71.7457 184.285 71.7485C184.115 71.7513 183.948 71.7983 183.802 71.8849C183.655 71.9716 183.534 72.0948 183.449 72.2426C183.365 72.3904 183.321 72.5576 183.32 72.7277Z" fill="#CCCCCC"/>
<path d="M180.42 70.8071C180.917 70.622 181.115 69.9219 180.863 69.2433C180.61 68.5647 180.002 68.1647 179.505 68.3498C179.008 68.5348 178.81 69.235 179.062 69.9136C179.315 70.5921 179.923 70.9922 180.42 70.8071Z" fill="#CCCCCC"/>
<path d="M111.575 204.295L89.8332 217.214C89.8332 217.214 98.7473 227.299 115.344 234.282L145.202 216.348" fill="url(#paint3_linear_22_3)" style="mix-blend-mode:multiply"/>
<path d="M129.791 221.288C140.023 221.288 148.318 216.429 148.318 210.436C148.318 204.442 140.023 199.584 129.791 199.584C119.558 199.584 111.263 204.442 111.263 210.436C111.263 216.429 119.558 221.288 129.791 221.288Z" fill="#FF912E"/>
<path d="M111.263 210.443V207.305L113.277 209.812L111.263 210.443Z" fill="#E0944F"/>
<path d="M148.31 207.305V210.443H145.962L147.687 207.92L148.31 207.305Z" fill="#E0944F"/>
<path d="M129.791 218.157C140.023 218.157 148.318 213.298 148.318 207.305C148.318 201.311 140.023 196.453 129.791 196.453C119.558 196.453 111.263 201.311 111.263 207.305C111.263 213.298 119.558 218.157 129.791 218.157Z" fill="#FFB92C"/>
<path d="M139.183 205.853C139.311 206.107 139.361 206.392 139.328 206.674L139.252 206.963H135.87C135.9 206.869 135.92 206.772 135.931 206.674C135.917 206.454 135.847 206.242 135.726 206.058C135.537 205.726 135.251 205.461 134.905 205.298C134.414 205.042 133.871 204.899 133.317 204.88C132.799 204.843 132.279 204.923 131.797 205.116C131.326 205.319 131.143 205.572 131.25 205.876C131.41 206.277 131.656 206.638 131.972 206.932C132.337 207.304 132.68 207.697 132.998 208.11C133.149 208.288 133.246 208.506 133.279 208.737C133.311 208.969 133.277 209.205 133.18 209.417C132.809 210.03 132.224 210.485 131.538 210.694C130.402 211.172 129.185 211.43 127.952 211.454C126.622 211.498 125.295 211.31 124.03 210.899L122.085 211.735L119.805 210.626L121.697 209.812C121.359 209.586 121.054 209.312 120.793 208.999C120.598 208.776 120.446 208.518 120.345 208.239C120.281 208.04 120.242 207.833 120.231 207.624C120.208 207.483 120.208 207.339 120.231 207.198L120.299 207.039H123.681C123.645 207.151 123.618 207.265 123.597 207.381C123.614 207.655 123.709 207.919 123.871 208.141C124.14 208.563 124.529 208.896 124.988 209.098C125.6 209.406 126.271 209.58 126.956 209.607C127.573 209.649 128.191 209.55 128.765 209.319C129.231 209.116 129.408 208.863 129.297 208.559C129.126 208.154 128.866 207.793 128.537 207.502C128.164 207.135 127.819 206.741 127.503 206.324C127.356 206.143 127.265 205.924 127.239 205.692C127.213 205.46 127.255 205.226 127.359 205.017C127.762 204.392 128.373 203.929 129.084 203.71C130.176 203.269 131.341 203.04 132.519 203.034C133.765 202.992 135.007 203.185 136.182 203.604L138.119 202.768L140.24 203.923L138.294 204.759C138.68 205.041 138.987 205.418 139.183 205.853Z" fill="#EA8B24"/>
<path d="M132.792 215.292C143.025 215.292 151.32 210.433 151.32 204.44C151.32 198.446 143.025 193.588 132.792 193.588C122.56 193.588 114.265 198.446 114.265 204.44C114.265 210.433 122.56 215.292 132.792 215.292Z" fill="#FF912E"/>
<path d="M114.273 204.44V201.301L116.287 203.809L114.273 204.44Z" fill="#E0944F"/>
<path d="M151.32 201.301V204.44L148.971 204.44L150.689 201.924L151.32 201.301Z" fill="#E0944F"/>
<path d="M132.792 212.153C143.025 212.153 151.32 207.294 151.32 201.301C151.32 195.308 143.025 190.449 132.792 190.449C122.56 190.449 114.265 195.308 114.265 201.301C114.265 207.295 122.56 212.153 132.792 212.153Z" fill="#FFB92C"/>
<path d="M142.193 199.85C142.32 200.103 142.371 200.389 142.337 200.671L142.261 200.959H138.879C138.909 200.865 138.929 200.769 138.94 200.671C138.927 200.451 138.856 200.239 138.735 200.055C138.547 199.723 138.26 199.457 137.914 199.295C137.423 199.039 136.88 198.896 136.326 198.877C135.808 198.839 135.288 198.92 134.806 199.113C134.335 199.315 134.153 199.569 134.259 199.873C134.419 200.274 134.666 200.634 134.981 200.929C135.346 201.3 135.689 201.694 136.007 202.107C136.158 202.285 136.256 202.502 136.288 202.734C136.32 202.965 136.286 203.201 136.189 203.414C135.818 204.027 135.233 204.482 134.548 204.691C133.411 205.169 132.194 205.427 130.961 205.45C129.632 205.495 128.305 205.307 127.04 204.896L125.094 205.732L122.814 204.622L124.707 203.809C124.368 203.583 124.063 203.309 123.802 202.996C123.607 202.772 123.455 202.515 123.354 202.236C123.29 202.036 123.252 201.83 123.24 201.62C123.217 201.479 123.217 201.336 123.24 201.195L123.308 201.035H126.69C126.655 201.147 126.627 201.262 126.606 201.377C126.623 201.652 126.718 201.915 126.88 202.137C127.15 202.56 127.538 202.893 127.997 203.095C128.609 203.403 129.28 203.577 129.965 203.604C130.582 203.646 131.201 203.547 131.774 203.315C132.24 203.112 132.417 202.859 132.306 202.555C132.135 202.15 131.876 201.789 131.546 201.499C131.174 201.132 130.828 200.738 130.513 200.321C130.366 200.14 130.274 199.92 130.248 199.689C130.223 199.457 130.264 199.223 130.368 199.014C130.771 198.388 131.382 197.925 132.093 197.707C133.185 197.266 134.351 197.036 135.528 197.03C136.774 196.989 138.017 197.182 139.191 197.6L141.129 196.764L143.249 197.92L141.304 198.755C141.69 199.037 141.996 199.414 142.193 199.85Z" fill="#EA8B24"/>
<path d="M139.358 208.87C149.59 208.87 157.885 204.012 157.885 198.018C157.885 192.025 149.59 187.166 139.358 187.166C129.126 187.166 120.831 192.025 120.831 198.018C120.831 204.012 129.126 208.87 139.358 208.87Z" fill="#FF912E"/>
<path d="M120.831 198.018V194.887L122.852 197.388L120.831 198.018Z" fill="#E0944F"/>
<path d="M157.878 194.887V198.018H155.53L157.255 195.503L157.878 194.887Z" fill="#E0944F"/>
<path d="M139.358 205.739C149.59 205.739 157.885 200.881 157.885 194.887C157.885 188.894 149.59 184.035 139.358 184.035C129.126 184.035 120.831 188.894 120.831 194.887C120.831 200.881 129.126 205.739 139.358 205.739Z" fill="#FFB92C"/>
<path d="M148.751 193.436C148.879 193.689 148.929 193.975 148.895 194.257L148.819 194.545H145.438C145.467 194.451 145.488 194.355 145.499 194.257C145.485 194.037 145.414 193.825 145.293 193.641C145.105 193.309 144.818 193.044 144.473 192.881C143.981 192.625 143.438 192.482 142.884 192.463C142.366 192.426 141.847 192.506 141.364 192.699C140.893 192.901 140.711 193.155 140.817 193.459C140.977 193.86 141.224 194.22 141.539 194.515C141.905 194.886 142.247 195.28 142.565 195.693C142.716 195.871 142.814 196.088 142.846 196.32C142.879 196.551 142.844 196.787 142.748 197C142.376 197.613 141.792 198.068 141.106 198.277C139.969 198.755 138.752 199.013 137.519 199.037C136.19 199.081 134.863 198.893 133.598 198.482L131.652 199.318L129.373 198.208L131.265 197.395C130.926 197.169 130.622 196.895 130.361 196.582C130.166 196.358 130.014 196.101 129.912 195.822C129.848 195.623 129.81 195.416 129.798 195.207C129.775 195.066 129.775 194.922 129.798 194.781L129.867 194.621H133.294C133.259 194.733 133.231 194.848 133.21 194.963C133.227 195.238 133.322 195.501 133.484 195.723C133.754 196.146 134.142 196.479 134.601 196.681C135.213 196.989 135.884 197.163 136.569 197.19C137.186 197.232 137.805 197.133 138.378 196.901C138.844 196.699 139.021 196.445 138.91 196.141C138.739 195.736 138.48 195.375 138.15 195.085C137.777 194.718 137.432 194.324 137.116 193.907C136.97 193.726 136.878 193.506 136.852 193.275C136.827 193.043 136.868 192.809 136.972 192.6C137.375 191.974 137.986 191.511 138.697 191.293C139.789 190.852 140.955 190.623 142.132 190.617C143.378 190.575 144.621 190.768 145.795 191.186L147.733 190.351L149.853 191.506L147.908 192.342C148.277 192.629 148.567 193.006 148.751 193.436Z" fill="#EA8B24"/>
<path d="M142.968 202.965C153.2 202.965 161.495 198.107 161.495 192.114C161.495 186.12 153.2 181.262 142.968 181.262C132.736 181.262 124.441 186.12 124.441 192.114C124.441 198.107 132.736 202.965 142.968 202.965Z" fill="#FF912E"/>
<path d="M124.448 192.114V188.975L126.462 191.483L124.448 192.114Z" fill="#E0944F"/>
<path d="M161.495 188.975L161.495 192.114L159.147 192.114L160.864 189.598L161.495 188.975Z" fill="#E0944F"/>
<path d="M142.968 199.827C153.2 199.827 161.495 194.968 161.495 188.975C161.495 182.982 153.2 178.123 142.968 178.123C132.736 178.123 124.441 182.982 124.441 188.975C124.441 194.968 132.736 199.827 142.968 199.827Z" fill="#FFD64C"/>
<path d="M152.368 187.531C152.496 187.785 152.546 188.07 152.513 188.352L152.437 188.641H149.055C149.085 188.547 149.105 188.45 149.116 188.352C149.102 188.132 149.031 187.92 148.911 187.736C148.722 187.404 148.435 187.139 148.09 186.976C147.598 186.72 147.056 186.577 146.502 186.558C145.984 186.521 145.464 186.601 144.982 186.794C144.511 186.997 144.328 187.25 144.435 187.554C144.595 187.955 144.841 188.316 145.157 188.61C145.522 188.982 145.865 189.375 146.182 189.788C146.334 189.966 146.431 190.184 146.464 190.415C146.496 190.647 146.462 190.883 146.365 191.095C145.994 191.708 145.409 192.163 144.723 192.372C143.587 192.85 142.369 193.108 141.136 193.132C139.807 193.176 138.48 192.988 137.215 192.577L135.27 193.413L132.99 192.304L134.882 191.49C134.543 191.264 134.239 190.99 133.978 190.677C133.783 190.454 133.631 190.196 133.529 189.917C133.466 189.718 133.427 189.511 133.416 189.302C133.393 189.161 133.393 189.017 133.416 188.876L133.484 188.717H136.866C136.83 188.829 136.802 188.943 136.782 189.059C136.799 189.333 136.894 189.597 137.056 189.819C137.325 190.241 137.714 190.574 138.173 190.776C138.785 191.084 139.456 191.258 140.141 191.285C140.758 191.327 141.376 191.228 141.95 190.996C142.416 190.794 142.593 190.54 142.482 190.237C142.311 189.832 142.051 189.471 141.722 189.18C141.349 188.813 141.004 188.419 140.688 188.002C140.541 187.821 140.45 187.602 140.424 187.37C140.398 187.138 140.44 186.904 140.544 186.695C140.947 186.07 141.558 185.607 142.269 185.388C143.361 184.947 144.526 184.718 145.704 184.712C146.95 184.67 148.192 184.863 149.367 185.282L151.304 184.446L153.425 185.601L151.532 186.513C151.889 186.78 152.176 187.129 152.368 187.531Z" fill="#EA8B24"/>
<path d="M202.045 127.891V166.701L172.666 151.13V111.69" fill="url(#paint4_linear_22_3)"/>
<path d="M183.678 137.679C175.174 137.679 168.015 134.32 165.834 129.746L165.15 129.958C165.15 135.954 173.441 140.81 183.678 140.81C193.108 140.81 200.883 136.684 202.045 131.349L200.928 130.734C198.284 134.792 191.558 137.679 183.678 137.679Z" fill="#FF912E"/>
<path d="M165.158 126.828V129.958L165.842 129.746C165.398 128.837 165.164 127.839 165.158 126.828Z" fill="#E0944F"/>
<path d="M168.927 126.957C168.927 131.562 175.562 135.316 183.716 135.316C190.555 135.316 196.346 132.664 198.01 129.077L193.192 126.356V126.493H189.81C189.84 126.399 189.86 126.302 189.871 126.204C189.858 125.985 189.787 125.773 189.666 125.589C189.478 125.257 189.191 124.991 188.845 124.829C188.354 124.572 187.811 124.429 187.257 124.411C186.739 124.373 186.219 124.454 185.737 124.646C185.266 124.849 185.084 125.102 185.19 125.406C185.35 125.807 185.596 126.168 185.912 126.463C186.277 126.834 186.62 127.228 186.938 127.641C187.089 127.819 187.187 128.036 187.219 128.268C187.251 128.499 187.217 128.735 187.12 128.948C186.749 129.561 186.164 130.015 185.479 130.224C184.342 130.703 183.125 130.961 181.892 130.984C180.562 131.028 179.236 130.841 177.971 130.43L176.025 131.266L173.745 130.156L175.638 129.343C175.299 129.116 174.994 128.843 174.733 128.53C174.538 128.306 174.386 128.049 174.285 127.77C174.221 127.57 174.183 127.363 174.171 127.154C174.148 127.013 174.148 126.87 174.171 126.729L174.239 126.569H177.621C177.586 126.681 177.558 126.795 177.537 126.911C177.554 127.185 177.649 127.449 177.811 127.671C178.081 128.093 178.469 128.427 178.928 128.629C179.54 128.937 180.211 129.11 180.896 129.138C181.513 129.179 182.132 129.081 182.705 128.849C183.171 128.646 183.348 128.393 183.237 128.089C183.066 127.684 182.807 127.323 182.477 127.033C182.104 126.666 181.759 126.272 181.443 125.855C181.297 125.674 181.205 125.454 181.179 125.222C181.154 124.991 181.195 124.756 181.299 124.548C181.703 123.925 182.314 123.465 183.024 123.248C184.116 122.807 185.282 122.578 186.459 122.572H186.505L179.954 118.879C173.616 119.828 168.927 123.089 168.927 126.957Z" fill="#FFD64C"/>
<path d="M165.842 129.746C168.023 134.305 175.182 137.679 183.685 137.679C191.566 137.679 198.284 134.799 200.966 130.734L199.325 129.806C197.296 133.864 191.072 136.821 183.716 136.821C174.726 136.821 167.407 132.39 167.407 126.941C167.407 122.731 171.785 119.145 177.925 117.723L176.36 116.842C169.778 118.506 165.166 122.344 165.166 126.812C165.167 127.828 165.399 128.831 165.842 129.746Z" fill="#FFD64C"/>
<path d="M183.047 123.271C182.337 123.488 181.726 123.948 181.322 124.571C181.218 124.779 181.176 125.014 181.202 125.245C181.228 125.477 181.319 125.697 181.466 125.878C181.782 126.295 182.127 126.688 182.5 127.055C182.829 127.346 183.089 127.707 183.26 128.112C183.376 128.441 183.199 128.694 182.728 128.872C182.154 129.104 181.536 129.202 180.919 129.161C180.234 129.133 179.563 128.96 178.951 128.651C178.492 128.449 178.103 128.116 177.834 127.694C177.672 127.472 177.577 127.208 177.56 126.934C177.581 126.818 177.609 126.704 177.644 126.592H174.262L174.194 126.752C174.171 126.892 174.171 127.036 174.194 127.177C174.206 127.386 174.244 127.593 174.308 127.793C174.409 128.071 174.561 128.329 174.756 128.553C175.017 128.865 175.322 129.139 175.66 129.366L173.768 130.179L176.048 131.288L177.993 130.452C179.258 130.863 180.585 131.051 181.915 131.007C183.148 130.984 184.365 130.726 185.502 130.247C186.187 130.038 186.772 129.584 187.143 128.971C187.24 128.758 187.274 128.522 187.242 128.29C187.209 128.059 187.112 127.842 186.961 127.663C186.643 127.25 186.3 126.857 185.935 126.486C185.619 126.191 185.373 125.83 185.213 125.429C185.101 125.1 185.284 124.847 185.76 124.669C186.242 124.477 186.762 124.396 187.28 124.434C187.834 124.452 188.377 124.595 188.868 124.852C189.214 125.014 189.5 125.28 189.689 125.612C189.81 125.795 189.88 126.008 189.894 126.227C189.883 126.325 189.863 126.422 189.833 126.516H193.215V126.379L186.558 122.625H186.489C185.311 122.62 184.143 122.84 183.047 123.271Z" fill="#EA8B24"/>
<path d="M167.407 126.957C167.407 132.398 174.726 136.836 183.716 136.836C191.072 136.836 197.296 133.872 199.325 129.822L198.01 129.062C196.346 132.649 190.578 135.301 183.716 135.301C175.562 135.301 168.927 131.554 168.927 126.942C168.927 123.073 173.624 119.821 179.962 118.879L177.925 117.731C171.785 119.16 167.407 122.747 167.407 126.957Z" fill="#F7931E"/>
<path d="M75.3869 177.872C74.4595 177.821 73.5556 177.561 72.7423 177.112L57.422 169.034L57.3004 153.076L49.1843 157.939L49.2907 171.58L48.5307 172.059L48.4168 172.127L48.356 164.095L41.0758 160.265L32.9597 165.128L40.2398 168.958L40.3082 177.667L39.1151 178.381L40.3158 179.005L45.4606 175.874L45.5062 181.756L52.4824 177.568L53.5615 178.138L53.6907 194.484L61.8068 189.621V188.055L66.754 185.092L67.8331 185.662L67.9623 202.008L76.0784 197.144L75.9492 180.798L73.6694 179.605L77.4007 177.371C76.7959 177.738 76.0935 177.913 75.3869 177.872Z" fill="#1EC3F6"/>
<path d="M87.0746 169.163C85.4867 165.974 83.3343 163.098 80.7216 160.675L83.5257 158.996C84.3014 158.522 84.961 157.881 85.456 157.118C86.8118 154.944 87.4695 152.406 87.3406 149.846C87.3008 147.807 86.9968 145.781 86.4363 143.82C85.8423 141.663 85.0115 139.578 83.9589 137.603C82.9157 135.615 81.6403 133.758 80.1592 132.071C78.859 130.562 77.3184 129.278 75.5996 128.271L75.5084 116.986L67.3847 112.708L61.3052 116.356L61.252 109.471L53.0523 105.2L44.9362 110.063L53.0599 114.342V116.432L39.0619 109.053L30.9458 113.916L39.8219 118.567V127.238L38.6288 127.952L39.8295 128.583L45.0198 125.475V126.865L52.9688 131.038L48.9411 133.447L49.0627 148.645L62.8251 155.895C64.5679 156.812 66.0447 156.913 67.2555 156.199L75.3716 151.335C74.1608 152.045 72.684 151.943 70.9412 151.031L57.1788 143.782L57.0572 128.803L58.0375 128.211L59.2534 128.849L59.299 134.374L67.4227 138.652L71.3668 136.289C71.5644 136.494 71.7695 136.691 71.9595 136.912C73.4406 138.599 74.7161 140.456 75.7592 142.444C76.8117 144.419 77.6426 146.503 78.2366 148.66C78.7971 150.622 79.1011 152.647 79.1409 154.687C79.2215 156.863 78.7675 159.026 77.8186 160.987L71.6252 164.703C74.6424 167.283 77.1104 170.444 78.8825 173.997C80.6611 177.502 81.5978 181.374 81.6183 185.305C81.7439 187.391 81.2972 189.472 80.3264 191.323C79.7874 192.255 79.0248 193.039 78.1074 193.603L86.2235 188.739C87.1409 188.175 87.9035 187.392 88.4425 186.46C89.4129 184.608 89.8596 182.527 89.7344 180.441C89.7328 176.527 88.8223 172.666 87.0746 169.163ZM67.3163 121.888V123.978L61.2368 120.778V118.689L67.3163 121.888Z" fill="#1EC3F6"/>
<path d="M75.3869 177.872C74.4595 177.821 73.5556 177.561 72.7423 177.112L57.422 169.034L57.3004 153.076L49.1843 157.939L49.2907 171.58L48.5307 172.059L48.4168 172.127L48.356 164.095L41.0758 160.265L32.9597 165.128L40.2398 168.958L40.3082 177.667L39.1151 178.381L40.3158 179.005L45.4606 175.874L45.5062 181.756L52.4824 177.568L53.5615 178.138L53.6907 194.484L61.8068 189.621V188.055L66.754 185.092L67.8331 185.662L67.9623 202.008L76.0784 197.144L75.9492 180.798L73.6694 179.605L77.4007 177.371C76.7959 177.738 76.0935 177.913 75.3869 177.872Z" fill="#054F70"/>
<path d="M87.0746 169.163C85.4867 165.974 83.3343 163.098 80.7216 160.675L83.5257 158.996C84.3014 158.522 84.961 157.881 85.456 157.118C86.8118 154.944 87.4695 152.406 87.3406 149.846C87.3008 147.807 86.9968 145.781 86.4363 143.82C85.8423 141.663 85.0115 139.578 83.9589 137.603C82.9157 135.615 81.6403 133.758 80.1592 132.071C78.859 130.562 77.3184 129.278 75.5996 128.271L75.5084 116.986L67.3847 112.708L61.3052 116.356L61.252 109.471L53.0523 105.2L44.9362 110.063L53.0599 114.342V116.432L39.0619 109.053L30.9458 113.916L39.8219 118.567V127.238L38.6288 127.952L39.8295 128.583L45.0198 125.475V126.865L52.9688 131.038L48.9411 133.447L49.0627 148.645L62.8251 155.895C64.5679 156.812 66.0447 156.913 67.2555 156.199L75.3716 151.335C74.1608 152.045 72.684 151.943 70.9412 151.031L57.1788 143.782L57.0572 128.803L58.0375 128.211L59.2534 128.849L59.299 134.374L67.4227 138.652L71.3668 136.289C71.5644 136.494 71.7695 136.691 71.9595 136.912C73.4406 138.599 74.7161 140.456 75.7592 142.444C76.8117 144.419 77.6426 146.503 78.2366 148.66C78.7971 150.622 79.1011 152.647 79.1409 154.687C79.2215 156.863 78.7675 159.026 77.8186 160.987L71.6252 164.703C74.6424 167.283 77.1104 170.444 78.8825 173.997C80.6611 177.502 81.5978 181.374 81.6183 185.305C81.7439 187.391 81.2972 189.472 80.3264 191.323C79.7874 192.255 79.0248 193.039 78.1074 193.603L86.2235 188.739C87.1409 188.175 87.9035 187.392 88.4425 186.46C89.4129 184.608 89.8596 182.527 89.7344 180.441C89.7328 176.527 88.8223 172.666 87.0746 169.163ZM67.3163 121.888V123.978L61.2368 120.778V118.689L67.3163 121.888Z" fill="#054F70"/>
<path d="M40.1942 168.974L40.2702 179.012L39.0695 178.382L31.455 174.369L32.9141 165.136L38.9936 168.335L40.1942 168.974Z" fill="#1EC3F6"/>
<path d="M53.5691 178.169L53.7059 194.515L45.5822 190.236L45.5138 181.786L45.4454 173.89L53.5691 178.169Z" fill="#1EC3F6"/>
<path d="M67.8407 185.684L67.9699 202.031L59.8462 197.752L59.717 181.406L67.8407 185.684Z" fill="#1EC3F6"/>
<path d="M39.7915 118.567V118.605L39.8675 128.613L38.6668 127.975L32.5341 124.745L30.9686 113.924L39.7915 118.567Z" fill="#1EC3F6"/>
<path d="M53.06 114.372L53.1967 131.167L45.073 126.888L44.9362 110.094L53.06 114.372Z" fill="#1EC3F6"/>
<path d="M78.9586 174.035C80.7371 177.54 81.6738 181.412 81.6944 185.343C81.8195 187.429 81.3728 189.51 80.4025 191.361C79.5956 192.758 78.2852 193.794 76.7396 194.257C74.968 194.743 73.1029 194.78 71.3136 194.363C70.1504 194.124 69.0091 193.788 67.9015 193.36L67.8407 185.692L59.717 181.414L59.7778 189.309L53.6375 186.072L53.5691 178.154L45.4454 173.89L45.5062 181.786L39.062 178.389L40.2627 179.012L40.1791 168.966L38.9784 168.335L38.6668 127.998L39.8675 128.629L39.8219 118.605L45.0579 121.364L45.1035 126.888L53.2272 131.167L53.1816 125.642L59.3218 128.879L59.3674 134.404L67.4912 138.682L67.4456 133.165C69.1643 134.172 70.7049 135.456 72.0052 136.965C73.4862 138.652 74.7617 140.509 75.8048 142.497C76.8574 144.472 77.6882 146.557 78.2822 148.714C78.8427 150.675 79.1467 152.701 79.1866 154.74C79.3154 157.3 78.6578 159.838 77.3019 162.013C76.7007 162.938 75.8589 163.682 74.8669 164.165C73.8748 164.649 72.77 164.853 71.6708 164.756C74.6974 167.329 77.1757 170.485 78.9586 174.035ZM70.7817 180.433C71.1447 179.552 71.3156 178.604 71.2832 177.652C71.2645 176.515 71.0933 175.385 70.7741 174.293C70.4537 173.155 70.013 172.055 69.4594 171.01C68.9255 170.011 68.2694 169.082 67.5064 168.244C66.799 167.459 65.9608 166.804 65.029 166.306L49.1843 157.947L49.3135 173.868L64.6262 181.953C65.4395 182.402 66.3434 182.662 67.2708 182.713C68.0188 182.77 68.7652 182.583 69.3986 182.181C70.0256 181.74 70.5092 181.124 70.7893 180.411L70.7817 180.433ZM48.9411 133.447L49.0627 148.645L62.8251 155.895C64.5679 156.812 66.0447 156.913 67.2555 156.199C68.4562 155.439 69.0566 153.919 69.0414 151.541C69.0418 149.287 68.4439 147.074 67.3088 145.127C66.3549 143.346 64.9094 141.877 63.1443 140.894L48.9411 133.447Z" fill="#1EC3F6"/>
<path d="M67.324 121.888L67.4608 138.69L59.337 134.404L59.2003 117.609L67.324 121.888Z" fill="#1EC3F6"/>
<defs>
<linearGradient id="paint0_linear_22_3" x1="147.204" y1="60.7998" x2="86.1925" y2="129.957" gradientUnits="userSpaceOnUse">
<stop stop-color="#00C1A5"/>
<stop offset="0.23" stop-color="#3BCFBA"/>
<stop offset="1" stop-color="white"/>
</linearGradient>
<linearGradient id="paint1_linear_22_3" x1="195.169" y1="11.3487" x2="30.7862" y2="85.4886" gradientUnits="userSpaceOnUse">
<stop stop-color="#00C1A5"/>
<stop offset="1" stop-color="white"/>
</linearGradient>
<linearGradient id="paint2_linear_22_3" x1="51869.1" y1="35457.3" x2="42751.8" y2="42831.8" gradientUnits="userSpaceOnUse">
<stop stop-color="#00C1A5"/>
<stop offset="1" stop-color="white"/>
</linearGradient>
<linearGradient id="paint3_linear_22_3" x1="53432.3" y1="53356" x2="44312.5" y2="60733" gradientUnits="userSpaceOnUse">
<stop stop-color="#00C1A5"/>
<stop offset="1" stop-color="white"/>
</linearGradient>
<linearGradient id="paint4_linear_22_3" x1="126.511" y1="102.333" x2="124.222" y2="190.278" gradientUnits="userSpaceOnUse">
<stop offset="0.01" stop-color="#002F3F"/>
<stop offset="1" stop-color="#054F70"/>
</linearGradient>
</defs>
</svg>
