<svg width="245" height="255" viewBox="0 0 245 255" fill="none" xmlns="http://www.w3.org/2000/svg">
<path d="M89.9842 31.7588C91.8914 31.7588 93.6551 31.4717 95.2342 30.918L97.49 33.9326H103.253L99.2742 28.6211C102.432 25.9551 104.217 21.6689 104.217 16.2139V16.1729C104.217 6.61621 98.7 0.648438 89.9842 0.648438C81.2684 0.648438 75.7312 6.5957 75.7312 16.1729V16.2139C75.7312 25.7705 81.1863 31.7588 89.9842 31.7588ZM89.9842 26.5088C85.1033 26.5088 82.0477 22.4688 82.0477 16.2139V16.1729C82.0477 9.89746 85.1648 5.89844 89.9842 5.89844C94.783 5.89844 97.9002 9.89746 97.9002 16.1729V16.2139C97.9002 19.4131 97.0799 22.0176 95.6443 23.8223L93.7371 21.2588H87.9744L91.7684 26.3037C91.1941 26.4473 90.5994 26.5088 89.9842 26.5088Z" fill="white"/>
<path d="M113.986 1.40723L107.649 31H110.5L112.858 19.8438H120.712C127.337 19.8438 132.258 15.7217 132.258 9.13867C132.258 4.50391 128.69 1.40723 123.768 1.40723H113.986ZM116.303 3.90918H122.866C126.906 3.90918 129.346 6.04199 129.346 9.38477C129.346 14.3477 125.798 17.3418 120.548 17.3418H113.391L116.303 3.90918Z" fill="white"/>
<path d="M139.362 31.3691C142.356 31.3691 145.165 29.8926 146.724 27.6162H146.97L146.252 31H148.877L151.954 16.46C152.077 15.8447 152.138 15.209 152.138 14.6348C152.138 10.9229 149.103 8.54395 144.407 8.54395C139.977 8.54395 136.47 10.8408 135.588 14.3887H138.418C139.095 12.2764 141.31 10.9639 144.202 10.9639C147.462 10.9639 149.411 12.4609 149.411 14.9834C149.411 15.3936 149.37 15.7627 149.267 16.2959L148.898 17.957L142.007 18.2852C135.957 18.5723 132.574 21.1562 132.574 25.4014C132.574 28.8057 135.445 31.3691 139.362 31.3691ZM140.141 29.0107C137.311 29.0107 135.322 27.4111 135.322 25.1348C135.322 22.4277 137.701 20.7256 141.864 20.5L148.447 20.1514L147.79 23.207C147.052 26.5293 143.832 29.0107 140.141 29.0107Z" fill="white"/>
<path d="M155.201 38.834C157.99 38.834 159.795 37.7471 162.215 33.5635L176.509 8.91309H173.535L162.974 27.6367H162.707L159.795 8.91309H157.109L160.759 31.0205L159.836 32.6816C158.237 35.5527 156.986 36.5371 155.345 36.5371C154.668 36.5371 153.95 36.4141 153.561 36.3115L153.089 38.5674C153.479 38.6699 154.422 38.834 155.201 38.834Z" fill="white"/>
<path d="M0.598632 165.07L155.719 255L240.279 206.178L85.8682 116.786L0.598632 165.07Z" fill="#EFDDD8"/>
<path d="M85.0558 168.413C79.9247 164.899 74.597 161.572 70.0731 157.245L30.8462 180.967L55.2957 194.565L91.2729 173.185C89.2119 171.569 87.1937 169.867 85.0558 168.413Z" fill="url(#paint0_linear_11_2)"/>
<path d="M132.834 194.043C127.703 190.528 126.626 192.752 122.102 188.425L85.1071 208.726L103.066 220.194L139.043 198.815C136.991 197.199 134.964 195.488 132.834 194.043Z" fill="url(#paint1_linear_11_2)"/>
<path d="M183.564 219.194C178.432 215.679 177.355 217.902 172.831 213.575L135.853 233.877L153.812 245.345L201.411 218.339C199.359 216.714 185.693 220.639 183.564 219.194Z" fill="url(#paint2_linear_11_2)"/>
<path d="M72.784 150.592L24.4495 179.274L0 165.677L48.1635 136.55" fill="url(#paint3_linear_11_2)"/>
<path d="M108.838 98.6909V129.588L54.4491 161.264V124.808L108.838 98.6909Z" fill="#FFC050"/>
<path d="M30.4699 146.82V115.529L54.449 129.375L54.4491 161.264" fill="#1E7BF6"/>
<path d="M54.4491 161.264L54.449 129.375L30.4699 115.529V146.82L54.4491 161.264Z" fill="#146666"/>
<path d="M54.2181 129.742L30.2903 115.931L86.2103 84.1273L108.838 98.6909L54.2181 129.742Z" fill="white"/>
<path d="M82.8067 85.3159C79.215 85.0081 75.4351 83.922 72.784 81.4677V92.106C72.7829 93.5566 73.0677 94.9932 73.622 96.3336C74.1763 97.6741 74.9894 98.8922 76.0147 99.9183C77.04 100.944 78.2574 101.758 79.5974 102.314C80.9375 102.869 82.3738 103.155 83.8244 103.155C86.7524 103.155 89.5606 101.992 91.6311 99.9213C93.7015 97.8508 94.8647 95.0427 94.8647 92.1146V81.2881C91.0934 82.8188 86.8175 85.6666 82.8067 85.3159Z" fill="#1E7BF6"/>
<path d="M83.8244 87.2487C89.9218 87.2487 94.8647 84.6299 94.8647 81.3993C94.8647 78.1688 89.9218 75.5499 83.8244 75.5499C77.727 75.5499 72.784 78.1688 72.784 81.3993C72.784 84.6299 77.727 87.2487 83.8244 87.2487Z" fill="#5ED18D"/>
<path d="M83.8243 82.3657C83.8243 82.3657 76.3159 81.2625 74.3233 69.1105C74.3233 69.1361 80.7286 72.668 83.8243 82.3657Z" fill="#5ED18D"/>
<path d="M84.9275 80.8434C84.9275 80.8434 76.3159 65.3818 84.9275 55C87.5567 63.4139 87.5567 72.4296 84.9275 80.8434Z" fill="#5ED18D"/>
<path d="M83.8243 71.1286C83.8243 71.1286 76.3159 70.0254 74.3233 57.8734C74.3233 57.8734 80.7286 61.4053 83.8243 71.1286Z" fill="#5ED18D"/>
<path d="M84.7394 76.0801C84.7394 76.0801 82.858 68.7255 93.2911 62.2006C93.2911 62.2006 92.5044 69.4696 84.7394 76.0801Z" fill="#5ED18D"/>
<path d="M83.8244 87.2487C89.9218 87.2487 94.8647 84.6299 94.8647 81.3993C94.8647 78.1688 89.9218 75.5499 83.8244 75.5499C77.727 75.5499 72.784 78.1688 72.784 81.3993C72.784 84.6299 77.727 87.2487 83.8244 87.2487Z" fill="#146666"/>
<path d="M83.8243 82.3657C83.8243 82.3657 76.3159 81.2625 74.3233 69.1105C74.3233 69.1361 80.7286 72.668 83.8243 82.3657Z" fill="#5ED18D"/>
<path d="M84.9275 80.8434C84.9275 80.8434 76.3159 65.3818 84.9275 55C87.5567 63.4139 87.5567 72.4296 84.9275 80.8434Z" fill="#5ED18D"/>
<path d="M83.8243 71.1286C83.8243 71.1286 76.3159 70.0254 74.3233 57.8734C74.3233 57.8734 80.7286 61.4053 83.8243 71.1286Z" fill="#5ED18D"/>
<path d="M84.7394 76.0801C84.7394 76.0801 82.858 68.7255 93.2911 62.2006C93.2911 62.2006 92.5044 69.4696 84.7394 76.0801Z" fill="#5ED18D"/>
<path d="M53.8504 122.422C64.1891 122.422 72.5702 117.514 72.5702 111.459C72.5702 105.404 64.1891 100.495 53.8504 100.495C43.5117 100.495 35.1306 105.404 35.1306 111.459C35.1306 117.514 43.5117 122.422 53.8504 122.422Z" fill="#FF912E"/>
<path d="M35.1306 111.459V108.295L37.1659 110.826L35.1306 111.459Z" fill="#E0944F"/>
<path d="M72.5617 108.295V111.459H70.1929L71.9289 108.919L72.5617 108.295Z" fill="#E0944F"/>
<path d="M53.8504 119.258C64.1891 119.258 72.5702 114.35 72.5702 108.295C72.5702 102.24 64.1891 97.3313 53.8504 97.3313C43.5117 97.3313 35.1306 102.24 35.1306 108.295C35.1306 114.349 43.5117 119.258 53.8504 119.258Z" fill="#FFB92C"/>
<path d="M63.3429 106.832C63.4767 107.096 63.5274 107.394 63.4883 107.687L63.4113 107.978H59.9906C60.0198 107.883 60.0398 107.786 60.0505 107.687C60.0378 107.465 59.9671 107.25 59.8452 107.063C59.6466 106.726 59.3476 106.46 58.9901 106.302C58.4924 106.043 57.9429 105.9 57.3823 105.883C56.864 105.843 56.3434 105.922 55.8601 106.114C55.3812 106.319 55.1959 106.587 55.3043 106.918C55.4648 107.323 55.713 107.688 56.0312 107.987C56.3998 108.362 56.7453 108.759 57.0659 109.175C57.2182 109.355 57.3167 109.574 57.35 109.807C57.3833 110.04 57.35 110.277 57.2541 110.492C56.879 111.112 56.2882 111.572 55.595 111.784C54.4476 112.261 53.2201 112.516 51.9776 112.536C50.6356 112.582 49.2958 112.394 48.0182 111.98L46.0513 112.836L43.7508 111.715L45.6579 110.86C45.3125 110.621 45.0042 110.333 44.7428 110.005C44.5464 109.781 44.3927 109.523 44.2896 109.244C44.224 109.044 44.1838 108.838 44.1699 108.628C44.1469 108.486 44.1469 108.342 44.1699 108.201L44.2383 108.038H47.659C47.6231 108.15 47.5946 108.264 47.5735 108.38C47.5876 108.66 47.6827 108.931 47.8471 109.158C48.1198 109.585 48.5126 109.921 48.976 110.125C49.5933 110.435 50.2697 110.61 50.96 110.638C51.5841 110.681 52.2099 110.581 52.79 110.347C53.2632 110.142 53.44 109.874 53.3202 109.543C53.1525 109.135 52.8953 108.77 52.5677 108.474C52.1917 108.104 51.843 107.706 51.5244 107.285C51.3745 107.102 51.2809 106.88 51.2551 106.644C51.2293 106.409 51.2724 106.171 51.379 105.96C51.7787 105.336 52.3835 104.87 53.0893 104.643C54.193 104.197 55.3712 103.965 56.5614 103.959C57.8207 103.916 59.0769 104.11 60.2643 104.532L62.2226 103.677L64.3691 104.848L62.4022 105.703C62.8108 105.989 63.1356 106.379 63.3429 106.832Z" fill="#EA8B24"/>
<path d="M53.8504 116.385C64.1891 116.385 72.5702 111.476 72.5702 105.421C72.5702 99.3663 64.1891 94.4579 53.8504 94.4579C43.5117 94.4579 35.1306 99.3663 35.1306 105.421C35.1306 111.476 43.5117 116.385 53.8504 116.385Z" fill="#FF912E"/>
<path d="M35.1306 105.421V102.257L37.1659 104.788L35.1306 105.421Z" fill="#E0944F"/>
<path d="M72.5617 102.257V105.421H70.1929L71.9289 102.881L72.5617 102.257Z" fill="#E0944F"/>
<path d="M53.8504 113.22C64.1891 113.22 72.5702 108.312 72.5702 102.257C72.5702 96.2022 64.1891 91.2937 53.8504 91.2937C43.5117 91.2937 35.1306 96.2021 35.1306 102.257C35.1306 108.312 43.5117 113.22 53.8504 113.22Z" fill="#FFB92C"/>
<path d="M63.3429 100.786C63.4767 101.05 63.5274 101.348 63.4883 101.641L63.4113 101.932H59.9906C60.0198 101.837 60.0398 101.74 60.0505 101.641C60.0378 101.419 59.9671 101.204 59.8452 101.017C59.6466 100.68 59.3476 100.414 58.9901 100.256C58.4924 99.9974 57.9429 99.8542 57.3823 99.8369C56.864 99.7972 56.3434 99.8762 55.8601 100.068C55.3812 100.273 55.1959 100.541 55.3043 100.872C55.4648 101.277 55.713 101.642 56.0312 101.941C56.3998 102.316 56.7453 102.713 57.0659 103.129C57.2182 103.309 57.3167 103.528 57.35 103.761C57.3833 103.994 57.35 104.231 57.2541 104.446C56.879 105.066 56.2882 105.526 55.595 105.738C54.4476 106.215 53.2201 106.47 51.9776 106.49C50.6356 106.536 49.2958 106.348 48.0182 105.934L46.0513 106.789L43.7508 105.669L45.6579 104.814C45.3125 104.575 45.0042 104.287 44.7428 103.959C44.5464 103.735 44.3927 103.477 44.2896 103.198C44.224 102.998 44.1838 102.791 44.1699 102.582C44.1469 102.44 44.1469 102.296 44.1699 102.154L44.2383 101.992H47.659C47.6231 102.104 47.5946 102.218 47.5735 102.334C47.5876 102.614 47.6827 102.885 47.8471 103.112C48.1198 103.539 48.5126 103.875 48.976 104.079C49.5933 104.389 50.2697 104.564 50.96 104.592C51.5841 104.635 52.2099 104.535 52.79 104.301C53.2632 104.096 53.44 103.828 53.3202 103.497C53.1525 103.089 52.8953 102.724 52.5677 102.428C52.1917 102.058 51.843 101.66 51.5244 101.239C51.3745 101.056 51.2809 100.833 51.2551 100.598C51.2293 100.363 51.2724 100.125 51.379 99.9139C51.7787 99.2894 52.3835 98.8238 53.0893 98.5969C54.193 98.1513 55.3712 97.9191 56.5614 97.9128C57.8207 97.8695 59.0769 98.0639 60.2643 98.4857L62.2226 97.6305L64.3691 98.8021L62.4022 99.6573C62.8108 99.943 63.1356 100.333 63.3429 100.786Z" fill="#EA8B24"/>
<path d="M46.5301 111.767C56.8688 111.767 65.2499 106.858 65.2499 100.803C65.2499 94.7483 56.8688 89.8398 46.5301 89.8398C36.1915 89.8398 27.8103 94.7483 27.8103 100.803C27.8103 106.858 36.1915 111.767 46.5301 111.767Z" fill="#FF912E"/>
<path d="M27.8103 100.803V97.6391L29.8456 100.17L27.8103 100.803Z" fill="#E0944F"/>
<path d="M65.2499 97.6391L65.2499 100.803L62.8725 100.803L64.6085 98.2634L65.2499 97.6391Z" fill="#E0944F"/>
<path d="M46.5301 108.602C56.8688 108.602 65.2499 103.694 65.2499 97.6391C65.2499 91.5842 56.8688 86.6757 46.5301 86.6757C36.1915 86.6757 27.8103 91.5842 27.8103 97.6391C27.8103 103.694 36.1915 108.602 46.5301 108.602Z" fill="#FFB92C"/>
<path d="M56.0311 96.1767C56.165 96.4405 56.2157 96.7387 56.1765 97.0319L56.0995 97.3226H52.6788C52.708 97.2278 52.7281 97.1305 52.7387 97.0319C52.7261 96.8094 52.6553 96.5941 52.5335 96.4076C52.3348 96.0708 52.0358 95.8047 51.6783 95.6465C51.1806 95.3879 50.6311 95.2447 50.0706 95.2274C49.5522 95.1877 49.0316 95.2667 48.5483 95.4583C48.0694 95.6636 47.8842 95.9315 47.9925 96.2622C48.153 96.6677 48.4012 97.0328 48.7194 97.3312C49.088 97.7061 49.4336 98.1031 49.7541 98.5199C49.9065 98.6993 50.0049 98.9182 50.0382 99.1512C50.0715 99.3842 50.0382 99.6219 49.9423 99.8368C49.5892 100.466 49.017 100.944 48.3345 101.179C47.1871 101.657 45.9597 101.912 44.7172 101.932C43.3751 101.978 42.0353 101.79 40.7577 101.376L38.7908 102.231L36.4904 101.111L38.3974 100.256C38.0521 100.017 37.7437 99.7291 37.4824 99.4007C37.2859 99.1769 37.1323 98.9189 37.0291 98.6396C36.9636 98.4402 36.9234 98.2333 36.9094 98.0239C36.8864 97.8823 36.8864 97.7379 36.9094 97.5963L36.9778 97.4338H40.3985C40.3627 97.5459 40.3341 97.6601 40.313 97.7759C40.3272 98.0562 40.4222 98.3265 40.5867 98.5541C40.8594 98.9805 41.2521 99.3167 41.7155 99.5204C42.3328 99.8306 43.0092 100.006 43.6995 100.034C44.3237 100.076 44.9494 99.977 45.5296 99.7428C46.0028 99.5375 46.1795 99.2696 46.0598 98.9389C45.892 98.5308 45.6349 98.1655 45.3072 97.8699C44.9312 97.4994 44.5825 97.1021 44.2639 96.6812C44.114 96.4981 44.0205 96.2753 43.9947 96.04C43.9689 95.8047 44.0119 95.567 44.1185 95.3557C44.5183 94.7313 45.123 94.2656 45.8289 94.0387C46.9325 93.5931 48.1107 93.3609 49.3009 93.3546C50.5602 93.3113 51.8164 93.5057 53.0038 93.9276L54.9622 93.0724L57.1087 94.244L55.1418 95.0992C55.5246 95.3773 55.8306 95.748 56.0311 96.1767Z" fill="#EA8B24"/>
<path d="M63.0521 162.547L85.2867 149.343C85.7384 149.075 86.2538 148.934 86.779 148.934C87.3042 148.934 87.8196 149.075 88.2713 149.343L105.845 159.776C106.284 160.038 106.647 160.411 106.898 160.857C107.148 161.303 107.277 161.806 107.272 162.318C107.267 162.829 107.128 163.33 106.868 163.771C106.609 164.212 106.238 164.577 105.794 164.83L84.5598 176.88C84.1213 177.127 83.6265 177.257 83.1231 177.257C82.6197 177.257 82.1249 177.127 81.6864 176.88L63.1205 166.438C62.7761 166.246 62.4881 165.967 62.2854 165.63C62.0826 165.292 61.9723 164.906 61.9653 164.512C61.9584 164.118 62.0552 163.729 62.2459 163.384C62.4366 163.039 62.7147 162.751 63.0521 162.547Z" fill="#146666"/>
<path d="M61.949 164.454L61.9575 160.819L64.4632 161.606L63.7277 164.531L61.949 164.454Z" fill="#146666"/>
<path d="M107.256 162.051V158.647L105.135 159.639L106.136 161.606L107.256 162.051Z" fill="#146666"/>
<path d="M63.0521 158.887L85.2867 145.683C85.7384 145.415 86.2538 145.274 86.779 145.274C87.3041 145.274 87.8196 145.415 88.2713 145.683L105.845 156.116C106.284 156.378 106.647 156.75 106.898 157.197C107.148 157.643 107.277 158.146 107.272 158.658C107.267 159.169 107.128 159.67 106.868 160.111C106.609 160.552 106.238 160.917 105.794 161.17L84.5598 173.22C84.1213 173.467 83.6265 173.597 83.1231 173.597C82.6197 173.597 82.1249 173.467 81.6864 173.22L63.1034 162.752C62.7658 162.557 62.4847 162.278 62.2875 161.942C62.0903 161.606 61.9839 161.224 61.9788 160.834C61.9736 160.444 62.0698 160.06 62.258 159.719C62.4462 159.377 62.7198 159.091 63.0521 158.887Z" fill="#2C9390"/>
<path d="M82.0541 154.286L84.5598 153.217L89.8533 163.385L87.3477 164.454L82.0541 154.286Z" fill="white"/>
<path d="M94.2489 156.826C95.3888 156.804 96.521 157.017 97.5756 157.45C98.4307 157.843 98.8925 158.305 98.8925 158.93C98.8925 159.554 98.4307 160.016 97.49 160.409C95.307 161.184 92.9202 161.163 90.7513 160.349C89.8961 159.956 89.4343 159.494 89.4343 158.87C89.4343 158.245 89.8875 157.784 90.8282 157.382C91.9172 156.96 93.0824 156.77 94.2489 156.826ZM96.1645 158.93C96.1645 158.699 95.9593 158.485 95.5574 158.297C95.112 158.104 94.6316 158.005 94.1463 158.006C93.6643 157.985 93.1835 158.067 92.7353 158.245C92.3333 158.416 92.1281 158.622 92.1367 158.853C92.1452 159.083 92.3419 159.297 92.7438 159.485C93.1892 159.678 93.6695 159.777 94.1549 159.776C94.6368 159.797 95.1177 159.715 95.5659 159.537C95.9678 159.366 96.1645 159.16 96.1645 158.93Z" fill="white"/>
<path d="M82.4903 158.801C82.4903 159.391 82.0285 159.887 81.0878 160.281C78.9012 161.056 76.5108 161.032 74.3405 160.212C73.4853 159.81 73.032 159.357 73.0235 158.733C73.0149 158.109 73.4938 157.655 74.426 157.253C76.6086 156.475 78.9963 156.497 81.1647 157.313C82.0456 157.724 82.4903 158.211 82.4903 158.801ZM76.3501 159.366C76.7955 159.558 77.2758 159.657 77.7612 159.656C78.2431 159.677 78.724 159.595 79.1722 159.417C79.5741 159.246 79.7794 159.041 79.7708 158.81C79.7623 158.579 79.5656 158.365 79.1636 158.177C78.2618 157.808 77.2542 157.793 76.3416 158.134C75.9396 158.305 75.7429 158.51 75.7429 158.741C75.7429 158.972 75.9482 159.186 76.3501 159.374" fill="white"/>
<path d="M206.32 76.4307C202.778 76.6161 199.3 77.4479 196.058 78.8851C190.927 81.2368 206.32 85.4101 206.32 85.4101" fill="#F2AE16"/>
<path d="M213.867 110.382C222.224 107.467 226.409 97.6816 223.216 88.5263C220.022 79.371 210.659 74.3123 202.302 77.2275C193.944 80.1426 189.759 89.9276 192.952 99.083C196.146 108.238 205.51 113.297 213.867 110.382Z" fill="#EA8B24"/>
<path d="M209.078 111.438C217.435 108.523 221.621 98.738 218.428 89.5826C215.234 80.4273 205.87 75.3687 197.513 78.2838C189.156 81.199 184.97 90.984 188.164 100.139C191.358 109.295 200.721 114.353 209.078 111.438Z" fill="#FFD008"/>
<path d="M206.653 86.5987C207.119 86.8223 207.551 87.1102 207.936 87.4539L208.304 87.8473L206.251 90.0622C206.16 89.9596 206.035 89.8313 205.875 89.6774C205.563 89.432 205.221 89.2279 204.857 89.0702C204.363 88.8233 203.819 88.6945 203.267 88.6939C202.695 88.6696 202.133 88.8517 201.685 89.207C201.498 89.3517 201.347 89.5371 201.244 89.7491C201.14 89.9611 201.086 90.1939 201.086 90.4299C201.093 90.7036 201.177 90.9698 201.329 91.1981C201.48 91.4264 201.692 91.6076 201.941 91.7212C202.56 92.0902 203.224 92.3776 203.917 92.5764C204.692 92.7987 205.47 93.0582 206.251 93.3546C207.037 93.6543 207.726 94.1629 208.244 94.8255C208.822 95.5697 209.125 96.4916 209.099 97.4338C209.127 98.5933 208.721 99.7215 207.962 100.598C207.117 101.515 205.987 102.118 204.755 102.308V104.54H201.762V102.394C201.177 102.307 200.604 102.158 200.051 101.949C199.575 101.778 199.116 101.561 198.683 101.299C198.351 101.093 198.031 100.867 197.725 100.624C197.512 100.459 197.312 100.279 197.127 100.085L196.938 99.8539L198.931 97.7588C199.034 97.8785 199.182 98.0324 199.376 98.2206C199.763 98.5317 200.192 98.7878 200.65 98.9817C201.293 99.2991 202.002 99.463 202.719 99.4606C203.416 99.4988 204.103 99.2898 204.661 98.8705C204.882 98.6935 205.059 98.468 205.179 98.2115C205.3 97.955 205.359 97.6742 205.353 97.391C205.346 97.1163 205.262 96.8492 205.11 96.6196C204.959 96.39 204.747 96.207 204.498 96.0912C203.878 95.718 203.211 95.4304 202.514 95.236C201.733 95.0194 200.955 94.7628 200.18 94.4663C199.397 94.1649 198.711 93.6565 198.196 92.9954C197.617 92.2512 197.315 91.3294 197.34 90.3871C197.362 89.3058 197.793 88.273 198.546 87.4967C199.357 86.6067 200.451 86.0238 201.642 85.8462V83.6398H204.635V85.8718C205.341 86.0094 206.022 86.2546 206.653 86.5987Z" fill="#EA8B24"/>
<path d="M210.031 165.591L217.027 169.559V139.372L222.525 142.536L213.905 122.525L204.729 132.778L210.313 135.823L210.031 165.591Z" fill="#1E7BF6"/>
<path d="M231.821 179L238.816 182.832V128.477L244.315 131.641L235.695 111.638L226.519 121.892L232.103 124.936L231.821 179Z" fill="#1E7BF6"/>
<path d="M167.126 106.842C178.613 102.421 184.185 89.1177 179.57 77.1284C174.956 65.1391 161.904 59.0037 150.417 63.4246C138.93 67.8455 133.359 81.1485 137.973 93.1378C142.587 105.127 155.64 111.263 167.126 106.842Z" fill="#EA8B24"/>
<path d="M165.332 107.535C176.281 103.321 181.416 90.1854 176.802 78.1961C172.187 66.2068 159.571 59.9036 148.622 64.1175C137.673 68.3315 132.537 81.4667 137.152 93.456C141.766 105.445 154.383 111.749 165.332 107.535Z" fill="#1E7BF6"/>
<path d="M131.458 80.8434L158.148 85.7863L144.619 61.0974C144.619 61.0974 132.843 66.8784 131.458 80.8434Z" fill="#5ED18D"/>
<path d="M158.148 85.7863L178.176 83.2208C178.176 83.2208 177.791 71.7785 164.844 64.8858C162.033 63.4806 158.934 62.749 155.792 62.749C152.649 62.749 149.55 63.4806 146.74 64.8858L158.148 85.7863Z" fill="#3E2928"/>
<path d="M168.538 200.696L207.996 197.276C207.996 197.276 211.553 200.431 210.869 201.483L168.538 205.075C168.538 205.075 167.05 201.569 168.538 200.696Z" fill="white"/>
<path d="M170.026 208.342L211.553 205.083L210.348 206.708L171.411 210.009L170.026 208.342Z" fill="white"/>
<path d="M189.259 219.895C174.43 219.895 162.817 212.198 162.817 202.424C162.817 192.649 174.43 184.987 189.259 184.987C204.088 184.987 215.701 192.683 215.701 202.458C215.701 212.233 204.088 219.895 189.259 219.895ZM189.259 190.939C178.142 190.939 168.803 196.198 168.803 202.424C168.803 208.649 178.21 213.909 189.259 213.909C200.308 213.909 209.715 208.649 209.715 202.424C209.715 196.198 200.342 190.973 189.259 190.973V190.939Z" fill="#1E7BF6"/>
<path d="M168.29 209L135.657 228.378C130.927 231.183 135.229 238.581 139.932 235.759L172.566 216.38C177.295 213.575 172.994 206.178 168.29 209Z" fill="#1E7BF6"/>
<path d="M189.259 219.895C174.43 219.895 162.817 212.198 162.817 202.424C162.817 192.649 174.43 184.987 189.259 184.987C204.088 184.987 215.701 192.683 215.701 202.458C215.701 212.233 204.088 219.895 189.259 219.895ZM189.259 190.939C178.142 190.939 168.803 196.198 168.803 202.424C168.803 208.649 178.21 213.909 189.259 213.909C200.308 213.909 209.715 208.649 209.715 202.424C209.715 196.198 200.342 190.973 189.259 190.973V190.939Z" fill="#3E2928"/>
<path d="M168.29 209L135.657 228.378C130.927 231.183 135.229 238.581 139.932 235.759L172.566 216.38C177.295 213.575 172.994 206.178 168.29 209Z" fill="#3E2928"/>
<path d="M121.743 99.529C118.327 102.47 115.743 106.256 114.252 110.509C111.618 117.77 118.194 129.648 118.194 129.648L128.456 121.558" fill="#FF8F6F"/>
<path d="M120.614 195.608L117.835 194.069L118.536 190.101C118.536 190.101 122.675 190.486 123.034 191.965" fill="#003B94"/>
<path d="M121.657 195.548C122.282 195.163 122.94 194.83 123.581 194.479C125.189 193.624 127.507 192.692 128.49 191.059C128.688 190.728 128.781 190.346 128.759 189.961C128.736 189.577 128.597 189.208 128.362 188.903C126.9 187.142 123.727 190.032 122.093 188.048C121.769 187.663 121.623 181.549 121.623 181.549L115.432 183.259C115.432 183.259 114.38 195.54 114.5 196.301C114.619 197.062 116.749 197.789 116.749 197.789C117.38 197.665 117.985 197.43 118.536 197.096C119.186 196.626 118.596 190.862 119.391 191.674C120.186 192.487 120.58 195.634 120.58 195.634C120.941 195.651 121.303 195.622 121.657 195.548Z" fill="#1E7BF6"/>
<path d="M132.458 201.543L129.679 200.004L130.38 196.036C130.38 196.036 134.519 196.42 134.878 197.9" fill="#003B94"/>
<path d="M133.51 201.483C134.134 201.098 134.793 200.765 135.434 200.414C137.042 199.559 139.359 198.627 140.343 196.993C140.541 196.663 140.634 196.281 140.611 195.896C140.588 195.512 140.45 195.143 140.215 194.838C138.752 193.077 135.58 195.967 133.946 193.983C133.621 193.598 133.476 187.484 133.476 187.484L127.284 189.194C127.284 189.194 126.232 201.475 126.352 202.236C126.472 202.997 128.601 203.724 128.601 203.724C129.233 203.6 129.838 203.365 130.389 203.031C131.039 202.561 130.449 196.797 131.244 197.609C132.039 198.422 132.433 201.569 132.433 201.569C132.794 201.586 133.156 201.557 133.51 201.483Z" fill="#1E7BF6"/>
<path d="M112.293 161.615L110.506 186.004C110.506 186.004 113.405 190.015 123.154 187.783L123.248 171.338" fill="#3E2928"/>
<path d="M123.59 166.447C123.376 168.55 123.59 191.717 123.59 191.717C123.59 191.717 126.284 196.762 138.025 191.717L137.863 172.048" fill="#3E2928"/>
<path d="M113.328 167.883C116.367 169.66 119.593 171.094 122.949 172.159H123.026C123.184 172.092 123.361 172.09 123.521 172.152C123.681 172.215 123.81 172.337 123.881 172.493C125.952 173.102 128.06 173.579 130.192 173.921C132.929 174.357 135.203 172.33 138.008 172.21C138.008 161.444 138.06 130.76 133.476 124.321L119.921 119.788C119.861 120.908 113.336 128.468 113.49 137.678C113.587 145.869 113.176 154.057 112.259 162.196" fill="#3E2928"/>
<path d="M134.707 111.826L133.459 124.184C133.459 124.184 123.333 124.594 118.972 121.618V111.1" fill="#FF8F6F"/>
<path d="M147.603 103.694L146.569 105.105C147.119 103.958 147.604 102.782 148.022 101.581C148.313 100.726 146.996 100.435 146.705 101.248L146.552 101.667C146.677 101.234 146.794 100.795 146.902 100.35C146.946 100.175 146.919 99.9903 146.827 99.8355C146.735 99.6807 146.585 99.569 146.41 99.5247C146.236 99.4805 146.051 99.5075 145.896 99.5997C145.741 99.6919 145.629 99.8418 145.585 100.016C145.3 101.159 144.957 102.286 144.559 103.394C144.781 102.411 144.941 101.414 145.038 100.41C145.123 99.5547 143.772 99.5547 143.687 100.41C143.577 101.565 143.374 102.709 143.079 103.831C143.079 103.443 143.045 103.055 142.977 102.667C142.967 102.571 142.937 102.477 142.888 102.393C142.84 102.309 142.774 102.237 142.695 102.18C142.695 102.026 142.609 101.881 142.558 101.727C142.503 101.579 142.399 101.454 142.263 101.374C142.127 101.293 141.967 101.263 141.811 101.287C141.655 101.311 141.512 101.389 141.406 101.506C141.301 101.624 141.239 101.774 141.232 101.932L141.147 107.063C140.902 107.591 140.582 108.08 140.198 108.517C140.852 108.975 141.483 109.466 142.087 109.988C142.627 110.452 143.141 110.946 143.627 111.467C144.06 110.926 144.479 110.373 144.884 109.808C144.933 109.766 144.976 109.717 145.012 109.663C146.227 107.873 147.478 106.111 148.766 104.378C149.297 103.668 148.116 103.001 147.603 103.694Z" fill="#FFB5A9"/>
<path d="M128.302 100.564C128.302 100.564 133.082 101.855 135.024 104.951C136.237 107.08 137.305 109.289 138.222 111.561L141.754 106.071C141.754 106.071 146.03 107.388 147.74 109.492C147.74 109.492 142.609 120.609 138.222 121.567C133.835 122.525 129.089 114.982 129.089 114.982C129.089 114.982 128.114 118.112 128.302 114.768" fill="#FF8F6F"/>
<path d="M131.346 112.442C129.964 111.322 128.916 109.843 128.319 108.166C127.746 106.216 128.465 104.498 129.174 102.676C129.897 100.876 130.319 98.969 130.423 97.0319C130.483 95.1248 130.26 93.2264 130.132 91.3279C130.113 91.2463 130.113 91.1614 130.132 91.0799C129.499 88.9334 128.182 87.1204 125.6 86.9066C118.921 86.3422 118.544 93.748 118.596 96.7411C118.647 99.7342 118.964 101.778 116.749 103.044C114.534 104.309 112.935 107.593 115.038 110.261C117.142 112.93 115.252 111.972 113.85 114.324C112.447 116.675 112.806 119.651 115.697 120.72C118.587 121.789 132.031 119.78 133.271 118.531C133.708 118.031 133.935 117.381 133.903 116.718C133.6 115.029 132.691 113.509 131.346 112.442Z" fill="#007F68"/>
<defs>
<linearGradient id="paint0_linear_11_2" x1="92.4221" y1="184.243" x2="234.395" y2="103.032" gradientUnits="userSpaceOnUse">
<stop stop-color="white" stop-opacity="0.03"/>
<stop offset="0.99" stop-color="#2A1700"/>
</linearGradient>
<linearGradient id="paint1_linear_11_2" x1="42388.7" y1="54363.2" x2="49088.3" y2="48159.6" gradientUnits="userSpaceOnUse">
<stop stop-color="white" stop-opacity="0.03"/>
<stop offset="0.99" stop-color="#2A1700"/>
</linearGradient>
<linearGradient id="paint2_linear_11_2" x1="58015.1" y1="61538.5" x2="66516.5" y2="53665" gradientUnits="userSpaceOnUse">
<stop stop-color="white" stop-opacity="0.03"/>
<stop offset="0.99" stop-color="#2A1700"/>
</linearGradient>
<linearGradient id="paint3_linear_11_2" x1="19188.5" y1="42368" x2="26357.6" y2="35728" gradientUnits="userSpaceOnUse">
<stop stop-color="white" stop-opacity="0.03"/>
<stop offset="0.99" stop-color="#2A1700"/>
</linearGradient>
</defs>
</svg>
